<svg xmlns="http://www.w3.org/2000/svg" viewBox="0 0 555.19 555.19"><g id="Layer_2" data-name="Layer 2"><g id="Layer_1-2" data-name="Layer 1"><g id="circles"><path d="M277.6,154.18a123.42,123.42,0,1,1-87.27,36.15,122.58,122.58,0,0,1,87.27-36.15m0-48.64a172.06,172.06,0,1,0,172,172.06,172.06,172.06,0,0,0-172-172.06Z" style="fill:#7bb7ff"/><path d="M277.6,78.47a199.12,199.12,0,1,1-140.81,58.32A197.81,197.81,0,0,1,277.6,78.47M277.6,0C124.28,0,0,124.28,0,277.6S124.28,555.19,277.6,555.19,555.19,430.91,555.19,277.6,430.91,0,277.6,0Z" style="fill:#7bb7ff"/></g></g></g></svg>